<svg xmlns="http://www.w3.org/2000/svg" version="1.0" width="1000.000000pt" height="1000.000000pt" viewBox="0 0 1000.000000 1000.000000" preserveAspectRatio="xMidYMid meet">

<g transform="translate(0.000000,1000.000000) scale(0.100000,-0.100000)" fill="#ffffff" stroke="none">
<path d="M2571 7483 c-48 -24 -78 -92 -62 -144 6 -21 25 -49 42 -63 l31 -26 323 0 c248 0 326 -3 332 -12 4 -7 130 -587 279 -1288 l271 -1275 -65 -34 c-93 -47 -174 -131 -219 -228 -34 -70 -38 -88 -41 -175 -4 -78 0 -110 17 -167 41 -137 154 -258 288 -313 l58 -23 1490 -2 c1182 -2 1495 0 1515 10 33 17 70 74 70 109 0 35 -20 76 -50 103 -22 20 -40 20 -1499 25 l-1476 5 -42 22 c-85 46 -131 136 -120 236 8 62 44 119 106 162 l43 30 1552 5 c1472 5 1553 6 1579 23 15 10 34 32 42 50 19 41 457 2099 457 2149 1 43 -20 80 -59 105 -26 17 -117 18 -1608 21 -869 2 -1600 0 -1624 -3 -32 -5 -54 -16 -78 -40 -28 -28 -33 -40 -33 -83 0 -58 25 -97 76 -118 28 -12 282 -14 1539 -14 828 0 1505 -3 1505 -6 0 -9 -380 -1796 -386 -1816 -5 -17 -80 -18 -1390 -18 l-1384 0 -10 23 c-5 12 -136 621 -290 1352 -155 732 -289 1346 -298 1365 -33 69 -40 70 -467 70 -335 0 -384 -2 -414 -17z" fill="#ffffff"/>
<path d="M3828 3454 c-119 -28 -231 -109 -299 -215 -93 -145 -93 -363 0 -508 175 -272 553 -306 767 -68 173 193 165 478 -20 663 -120 120 -287 168 -448 128z m218 -267 c18 -9 48 -35 68 -58 71 -84 71 -205 -2 -289 -105 -123 -300 -103 -374 39 -104 198 110 412 308 308z" fill="#ffffff"/>
<path d="M6306 3455 c-243 -62 -403 -297 -366 -539 29 -199 183 -360 382 -402 256 -55 513 115 567 374 49 234 -88 474 -314 552 -80 28 -194 34 -269 15z m192 -257 c19 -6 49 -24 68 -41 105 -91 105 -253 0 -344 -46 -42 -96 -56 -172 -51 -258 16 -277 398 -22 447 44 9 69 6 126 -11z" fill="#ffffff"/>
</g>
</svg>