<!DOCTYPE svg PUBLIC "-//W3C//DTD SVG 1.1//EN" "http://www.w3.org/Graphics/SVG/1.1/DTD/svg11.dtd">
<!-- Uploaded to: SVG Repo, www.svgrepo.com, Transformed by: SVG Repo Mixer Tools -->
<svg fill="#9ba3af" width="64px" height="64px" viewBox="-1.2 -1.2 26.40 26.40" xmlns="http://www.w3.org/2000/svg" stroke="#9ba3af" transform="matrix(-1, 0, 0, 1, 0, 0)" stroke-width="0.6">
<g id="SVGRepo_bgCarrier" stroke-width="0"/>
<g id="SVGRepo_tracerCarrier" stroke-linecap="round" stroke-linejoin="round"/>
<g id="SVGRepo_iconCarrier">
<path d="M2,4A1,1,0,0,1,3,3H21a1,1,0,0,1,0,2H3A1,1,0,0,1,2,4Zm1,9H21a1,1,0,0,0,0-2H3a1,1,0,0,0,0,2Zm18,6H12a1,1,0,0,0,0,2h9a1,1,0,0,0,0-2Z"/>
</g>
</svg>