<svg xmlns="http://www.w3.org/2000/svg" xmlns:xlink="http://www.w3.org/1999/xlink" zoomAndPan="magnify" preserveAspectRatio="xMidYMid meet" version="1.0" viewBox="53.49 148.46 267.75 78"><defs><g/><clipPath id="60614b3b32"><path d="M 56.488281 151.464844 L 318.238281 151.464844 L 318.238281 223.464844 L 56.488281 223.464844 Z M 56.488281 151.464844 " clip-rule="nonzero"/></clipPath><clipPath id="a84d3e1ec3"><path d="M 63.558594 158.238281 L 187.332031 158.238281 L 187.332031 216.761719 L 63.558594 216.761719 Z M 63.558594 158.238281 " clip-rule="nonzero"/></clipPath></defs><g clip-path="url(#60614b3b32)"><path stroke-linecap="butt" transform="matrix(0.750202, 0, 0, 0.749268, 56.489269, 151.465449)" fill="none" stroke-linejoin="miter" d="M -0.00131637 -0.000808127 L 348.904932 -0.000808127 L 348.904932 96.092952 L -0.00131637 96.092952 L -0.00131637 -0.000808127 " stroke="#ffffff" stroke-width="6" stroke-opacity="1" stroke-miterlimit="4"/></g><g clip-path="url(#a84d3e1ec3)"><path fill="#ffffff" d="M 63.558594 158.238281 L 188.035156 158.238281 L 188.035156 217.363281 L 63.558594 217.363281 Z M 63.558594 158.238281 " fill-opacity="1" fill-rule="nonzero"/></g><g fill="#000000" fill-opacity="1"><g transform="translate(76.766566, 199.968268)"><g><path d="M 18 0 L 20.824219 0 L 20.824219 -22.460938 L 18 -22.460938 L 18 -12.800781 L 6.097656 -12.800781 L 6.097656 -22.460938 L 3.273438 -22.460938 L 3.273438 0 L 6.097656 0 L 6.097656 -10.105469 L 18 -10.105469 Z M 18 0 "/></g></g></g><g fill="#000000" fill-opacity="1"><g transform="translate(103.293084, 199.968268)"><g><path d="M 3.273438 0 L 17.261719 0 L 17.261719 -2.632812 L 6.097656 -2.632812 L 6.097656 -10.140625 L 16.105469 -10.140625 L 16.105469 -12.738281 L 6.097656 -12.738281 L 6.097656 -19.828125 L 16.910156 -19.828125 L 16.910156 -22.460938 L 3.273438 -22.460938 Z M 3.273438 0 "/></g></g></g><g fill="#000000" fill-opacity="1"><g transform="translate(125.072628, 199.968268)"><g><path d="M 0.546875 0 L 3.5625 0 L 5.613281 -5.101562 L 16.554688 -5.101562 L 18.671875 0 L 21.65625 0 L 12.417969 -22.460938 L 9.785156 -22.460938 Z M 6.707031 -7.734375 L 11.101562 -18.511719 L 15.496094 -7.734375 Z M 6.707031 -7.734375 "/></g></g></g><g fill="#000000" fill-opacity="1"><g transform="translate(149.706773, 199.968268)"><g><path d="M 3.273438 0 L 11.039062 0 C 17.933594 0 22.554688 -4.589844 22.554688 -11.230469 C 22.554688 -17.871094 17.933594 -22.460938 11.039062 -22.460938 L 3.273438 -22.460938 Z M 6.097656 -2.695312 L 6.097656 -19.765625 L 10.910156 -19.765625 C 16.140625 -19.765625 19.667969 -16.332031 19.667969 -11.230469 C 19.667969 -6.128906 16.171875 -2.695312 11.039062 -2.695312 Z M 6.097656 -2.695312 "/></g></g></g><g fill="#ffffff" fill-opacity="1"><g transform="translate(210.852456, 199.968268)"><g><path d="M 10.171875 0 L 12.671875 0 L 12.671875 -2.597656 L 10.300781 -2.597656 C 8.085938 -2.597656 7.058594 -3.722656 7.058594 -6.128906 L 7.058594 -14.179688 L 12.449219 -14.179688 L 12.449219 -16.652344 L 7.058594 -16.652344 L 7.058594 -20.792969 L 4.972656 -20.792969 L 4.714844 -18.546875 C 4.523438 -17.039062 4.074219 -16.652344 2.535156 -16.652344 L 0.867188 -16.652344 L 0.867188 -14.179688 L 4.363281 -14.179688 L 4.363281 -6 C 4.363281 -2.183594 6.480469 0 10.171875 0 Z M 10.171875 0 "/></g></g></g><g fill="#ffffff" fill-opacity="1"><g transform="translate(225.093402, 199.968268)"><g><path d="M 10.492188 0.417969 C 15.65625 0.417969 19.316406 -3.242188 19.316406 -8.34375 C 19.316406 -13.445312 15.65625 -17.070312 10.492188 -17.070312 C 5.324219 -17.070312 1.667969 -13.445312 1.667969 -8.34375 C 1.667969 -3.242188 5.324219 0.417969 10.492188 0.417969 Z M 4.363281 -8.34375 C 4.363281 -11.96875 6.898438 -14.503906 10.492188 -14.503906 C 14.085938 -14.503906 16.621094 -11.96875 16.621094 -8.34375 C 16.621094 -4.683594 14.085938 -2.183594 10.492188 -2.183594 C 6.898438 -2.183594 4.363281 -4.683594 4.363281 -8.34375 Z M 4.363281 -8.34375 "/></g></g></g><g fill="#ffffff" fill-opacity="1"><g transform="translate(246.06994, 199.968268)"><g><path d="M 6.511719 0 L 9.113281 0 L 13.925781 -12.671875 L 16.105469 -6.867188 L 18.769531 0 L 21.335938 0 L 27.304688 -16.652344 L 24.480469 -16.652344 L 21.785156 -9.113281 L 20.019531 -4.042969 L 15.144531 -16.652344 L 12.671875 -16.652344 L 9.816406 -9.113281 L 7.859375 -4.011719 L 6.0625 -9.113281 L 3.402344 -16.652344 L 0.546875 -16.652344 Z M 6.511719 0 "/></g></g></g><g fill="#ffffff" fill-opacity="1"><g transform="translate(273.910358, 199.968268)"><g><path d="M 2.984375 0 L 5.679688 0 L 5.679688 -8.40625 C 5.679688 -12.0625 7.894531 -14.503906 11.003906 -14.503906 C 13.925781 -14.503906 15.722656 -12.386719 15.722656 -9.015625 L 15.722656 0 L 18.417969 0 L 18.417969 -9.273438 C 18.417969 -14.019531 15.785156 -17.070312 11.359375 -17.070312 C 9.113281 -17.070312 6.929688 -16.203125 5.488281 -14.214844 L 5.199219 -16.652344 L 2.984375 -16.652344 Z M 2.984375 0 "/></g></g></g></svg>