<?xml version="1.0" standalone="no"?>
<!DOCTYPE svg PUBLIC "-//W3C//DTD SVG 20010904//EN"
 "http://www.w3.org/TR/2001/REC-SVG-20010904/DTD/svg10.dtd">
<svg version="1.0" xmlns="http://www.w3.org/2000/svg"
 width="1000.000000pt" height="1000.000000pt" viewBox="0 0 1000.000000 1000.000000"
 preserveAspectRatio="xMidYMid meet">

<g transform="translate(0.000000,1000.000000) scale(0.100000,-0.100000)"
fill="#000000" stroke="none">
<path d="M4426 7620 c-662 -76 -1192 -479 -1434 -1091 -77 -193 -112 -389
-112 -626 0 -464 175 -888 500 -1213 239 -240 533 -397 880 -471 144 -31 491
-34 645 -5 202 37 443 131 613 239 l64 40 616 -615 c687 -685 660 -662 792
-663 62 0 85 5 132 28 134 66 196 213 153 363 -17 59 -18 60 -642 686 l-626
626 42 67 c322 510 354 1147 85 1690 -244 492 -707 835 -1258 930 -111 19
-346 27 -450 15z m436 -421 c453 -91 832 -425 983 -863 71 -209 89 -476 46
-684 -107 -514 -478 -901 -983 -1028 -139 -35 -367 -44 -515 -20 -279 44 -529
171 -728 371 -119 119 -187 215 -261 369 -82 171 -115 309 -121 512 -8 240 25
412 118 613 108 232 320 461 545 587 149 83 331 143 499 163 109 13 300 4 417
-20z"/>
</g>
</svg>
