<?xml version="1.0" standalone="no"?>
<!DOCTYPE svg PUBLIC "-//W3C//DTD SVG 20010904//EN"
 "http://www.w3.org/TR/2001/REC-SVG-20010904/DTD/svg10.dtd">
<svg version="1.0" xmlns="http://www.w3.org/2000/svg"
 width="1000.000000pt" height="1000.000000pt" viewBox="0 0 1000.000000 1000.000000"
 preserveAspectRatio="xMidYMid meet">

<g transform="translate(0.000000,1000.000000) scale(0.100000,-0.100000)"
fill="#000000" stroke="none">
<path d="M4750 7179 c-485 -55 -952 -281 -1300 -629 -685 -684 -839 -1742
-378 -2593 564 -1042 1850 -1446 2913 -915 524 262 924 730 1104 1291 136 425
136 909 0 1334 -264 824 -992 1419 -1851 1512 -112 13 -378 12 -488 0z m415
-180 c705 -60 1325 -483 1635 -1115 385 -783 221 -1716 -407 -2325 l-108 -104
-11 121 c-7 66 -21 158 -33 203 -24 96 -91 242 -150 330 -97 143 -255 279
-409 353 -48 22 -89 43 -91 45 -2 1 14 24 36 50 98 118 151 222 184 361 28
117 23 321 -11 427 -115 360 -431 595 -800 595 -369 0 -685 -235 -800 -595
-34 -106 -39 -310 -11 -427 33 -139 86 -243 184 -361 22 -26 38 -49 36 -50 -2
-2 -43 -23 -91 -45 -268 -128 -487 -396 -559 -683 -12 -45 -26 -137 -33 -203
l-11 -121 -108 104 c-174 169 -304 346 -407 557 -383 780 -221 1715 402 2320
231 224 474 371 773 469 268 88 519 118 790 94z m0 -1265 c210 -54 378 -213
449 -425 54 -161 42 -326 -36 -488 -57 -119 -169 -231 -288 -290 -193 -94
-387 -94 -580 0 -119 59 -231 171 -288 290 -78 162 -90 327 -36 488 111 329
443 510 779 425z m-477 -1398 c199 -83 448 -80 644 7 l58 26 72 -20 c223 -62
430 -237 538 -454 63 -128 81 -213 87 -410 l5 -170 -81 -48 c-335 -199 -767
-299 -1152 -268 -320 26 -616 117 -870 268 l-81 48 5 175 c6 199 21 271 87
405 81 164 212 300 373 386 80 42 222 92 242 84 6 -2 38 -15 73 -29z"/>
</g>
</svg>
